<svg data-v-fde0c5aa="" xmlns="http://www.w3.org/2000/svg" viewBox="0 0 300 300" class="iconLeft"><!----><defs data-v-fde0c5aa=""><!----></defs><rect data-v-fde0c5aa="" fill="transparent" x="0" y="0" width="300px" height="300px" class="logo-background-square"></rect><defs data-v-fde0c5aa=""><!----></defs><g data-v-fde0c5aa="" id="61eab649-c6a0-4b4e-af81-716157c19c22" fill="#000000" transform="matrix(2.548533817149182,0,0,2.548533817149182,120.67165928796224,123.82655835410513)"><path d="M5.64 15.76L5.64 15.76L5.64 15.76Q5.37 15.98 5.02 16.23L5.02 16.23L5.02 16.23Q4.68 16.47 4.29 16.67L4.29 16.67L4.29 16.67Q3.90 16.87 3.47 17.00L3.47 17.00L3.47 17.00Q3.04 17.13 2.60 17.13L2.60 17.13L2.60 17.13Q2.47 17.13 2.34 17.10L2.34 17.10L2.34 17.10Q2.21 17.06 2.11 16.98L2.11 16.98L2.11 16.98Q2.00 16.89 1.94 16.75L1.94 16.75L1.94 16.75Q1.87 16.60 1.89 16.39L1.89 16.39L1.89 16.39Q1.89 16.14 1.91 15.12L1.91 15.12L1.91 15.12Q1.92 14.69 1.94 14.05L1.94 14.05L1.94 14.05Q1.96 13.41 1.98 12.50L1.98 12.50L1.98 12.50Q2.00 11.59 2.04 10.38L2.04 10.38L2.04 10.38Q2.07 9.18 2.11 7.62L2.11 7.62L2.11 7.62Q1.66 7.68 1.23 7.72L1.23 7.72L1.23 7.72Q0.79 7.77 0.39 7.81L0.39 7.81L2.14 6.52L2.14 6.52Q2.39 6.56 2.68 6.58L2.68 6.58L2.68 6.58Q2.96 6.59 3.23 6.59L3.23 6.59L3.23 6.59Q3.64 6.59 4.02 6.56L4.02 6.56L4.02 6.56Q4.40 6.54 4.77 6.50L4.77 6.50L4.77 6.50Q5.13 6.46 5.49 6.43L5.49 6.43L5.49 6.43Q5.85 6.41 6.21 6.41L6.21 6.41L6.21 6.41Q6.80 6.41 7.38 6.55L7.38 6.55L7.38 6.55Q7.95 6.70 8.40 7.00L8.40 7.00L8.40 7.00Q8.86 7.31 9.14 7.78L9.14 7.78L9.14 7.78Q9.42 8.24 9.42 8.89L9.42 8.89L9.42 8.89Q9.42 9.37 9.23 9.86L9.23 9.86L9.23 9.86Q9.03 10.35 8.70 10.81L8.70 10.81L8.70 10.81Q8.37 11.27 7.93 11.67L7.93 11.67L7.93 11.67Q7.49 12.07 7.01 12.37L7.01 12.37L7.01 12.37Q6.53 12.67 6.03 12.86L6.03 12.86L6.03 12.86Q5.53 13.04 5.08 13.06L5.08 13.06L4.87 12.92L4.87 12.92Q5.47 12.78 5.97 12.50L5.97 12.50L5.97 12.50Q6.48 12.21 6.85 11.80L6.85 11.80L6.85 11.80Q7.22 11.40 7.42 10.88L7.42 10.88L7.42 10.88Q7.63 10.36 7.63 9.77L7.63 9.77L7.63 9.77Q7.63 9.35 7.51 9.02L7.51 9.02L7.51 9.02Q7.38 8.68 7.16 8.42L7.16 8.42L7.16 8.42Q6.95 8.16 6.65 7.97L6.65 7.97L6.65 7.97Q6.36 7.79 6.03 7.67L6.03 7.67L6.03 7.67Q5.69 7.55 5.34 7.49L5.34 7.49L5.34 7.49Q4.98 7.43 4.62 7.43L4.62 7.43L4.62 7.43Q4.42 7.43 4.22 7.44L4.22 7.44L4.22 7.44Q4.02 7.44 3.82 7.46L3.82 7.46L3.55 15.76L3.55 15.76Q3.71 15.87 3.93 15.92L3.93 15.92L3.93 15.92Q4.15 15.97 4.38 15.97L4.38 15.97L4.38 15.97Q4.61 15.97 4.84 15.94L4.84 15.94L4.84 15.94Q5.07 15.91 5.24 15.87L5.24 15.87L5.24 15.87Q5.46 15.82 5.64 15.76ZM21.17 15.29L21.17 15.29L21.17 15.29Q20.66 15.66 20.28 15.93L20.28 15.93L20.28 15.93Q19.89 16.21 19.56 16.38L19.56 16.38L19.56 16.38Q19.24 16.56 18.94 16.63L18.94 16.63L18.94 16.63Q18.63 16.70 18.29 16.68L18.29 16.68L18.29 16.68Q18.02 16.67 17.83 16.57L17.83 16.57L17.83 16.57Q17.64 16.47 17.52 16.28L17.52 16.28L17.52 16.28Q17.40 16.09 17.33 15.81L17.33 15.81L17.33 15.81Q17.27 15.54 17.25 15.16L17.25 15.16L17.25 15.16Q16.86 15.49 16.44 15.78L16.44 15.78L16.44 15.78Q16.02 16.06 15.58 16.27L15.58 16.27L15.58 16.27Q15.13 16.48 14.65 16.60L14.65 16.60L14.65 16.60Q14.18 16.71 13.68 16.71L13.68 16.71L13.68 16.71Q13.00 16.71 12.56 16.51L12.56 16.51L12.56 16.51Q12.12 16.30 11.86 15.93L11.86 15.93L11.86 15.93Q11.61 15.57 11.51 15.05L11.51 15.05L11.51 15.05Q11.41 14.54 11.41 13.92L11.41 13.92L11.41 13.92Q11.41 13.52 11.42 13.13L11.42 13.13L11.42 13.13Q11.44 12.74 11.44 12.37L11.44 12.37L11.44 12.37Q11.44 11.94 11.41 11.57L11.41 11.57L11.41 11.57Q11.38 11.19 11.28 10.91L11.28 10.91L11.28 10.91Q11.19 10.64 11.02 10.48L11.02 10.48L11.02 10.48Q10.84 10.32 10.55 10.32L10.55 10.32L10.55 10.32Q10.32 10.32 9.98 10.44L9.98 10.44L9.98 10.44Q10.23 10.24 10.51 10.04L10.51 10.04L10.51 10.04Q10.79 9.83 11.08 9.67L11.08 9.67L11.08 9.67Q11.37 9.50 11.67 9.40L11.67 9.40L11.67 9.40Q11.98 9.29 12.29 9.29L12.29 9.29L12.29 9.29Q12.58 9.29 12.75 9.43L12.75 9.43L12.75 9.43Q12.91 9.56 13.00 9.78L13.00 9.78L13.00 9.78Q13.09 9.99 13.12 10.26L13.12 10.26L13.12 10.26Q13.15 10.52 13.15 10.77L13.15 10.77L13.15 10.77Q13.15 11.45 13.13 12.07L13.13 12.07L13.13 12.07Q13.12 12.68 13.12 13.30L13.12 13.30L13.12 13.30Q13.13 13.83 13.24 14.24L13.24 14.24L13.24 14.24Q13.36 14.66 13.61 14.94L13.61 14.94L13.61 14.94Q13.86 15.23 14.26 15.37L14.26 15.37L14.26 15.37Q14.66 15.52 15.23 15.50L15.23 15.50L15.23 15.50Q15.66 15.50 15.99 15.44L15.99 15.44L15.99 15.44Q16.31 15.37 16.55 15.22L16.55 15.22L16.55 15.22Q16.80 15.06 16.96 14.80L16.96 14.80L16.96 14.80Q17.13 14.53 17.25 14.12L17.25 14.12L17.25 14.12Q17.27 13.21 17.30 12.39L17.30 12.39L17.30 12.39Q17.34 11.57 17.34 10.76L17.34 10.76L17.34 10.76Q17.33 10.60 17.25 10.48L17.25 10.48L17.25 10.48Q17.19 10.38 17.05 10.33L17.05 10.33L17.05 10.33Q16.91 10.27 16.66 10.34L16.66 10.34L16.66 10.34Q16.86 10.19 17.10 10.01L17.10 10.01L17.10 10.01Q17.35 9.82 17.61 9.66L17.61 9.66L17.61 9.66Q17.86 9.50 18.11 9.39L18.11 9.39L18.11 9.39Q18.36 9.28 18.58 9.28L18.58 9.28L18.58 9.28Q18.81 9.28 18.98 9.41L18.98 9.41L18.98 9.41Q19.14 9.55 19.14 9.81L19.14 9.81L19.14 9.81Q19.14 9.95 19.14 10.32L19.14 10.32L19.14 10.32Q19.13 10.68 19.12 11.17L19.12 11.17L19.12 11.17Q19.11 11.66 19.11 12.20L19.11 12.20L19.11 12.20Q19.10 12.75 19.09 13.25L19.09 13.25L19.09 13.25Q19.09 13.75 19.09 14.16L19.09 14.16L19.09 14.16Q19.09 14.57 19.09 14.78L19.09 14.78L19.09 14.78Q19.10 15.17 19.39 15.35L19.39 15.35L19.39 15.35Q19.68 15.54 20.10 15.54L20.10 15.54L20.10 15.54Q20.36 15.54 20.63 15.47L20.63 15.47L20.63 15.47Q20.91 15.41 21.17 15.29ZM24.26 15.78L24.26 15.78L22.63 16.96L22.63 16.96Q22.69 15.64 22.72 14.71L22.72 14.71L22.72 14.71Q22.76 13.78 22.77 13.18L22.77 13.18L22.77 13.18Q22.79 12.48 22.79 12.02L22.79 12.02L22.79 12.02Q22.83 11.19 22.57 10.72L22.57 10.72L22.57 10.72Q22.31 10.25 21.77 10.25L21.77 10.25L21.77 10.25Q21.60 10.25 21.41 10.31L21.41 10.31L21.41 10.31Q21.23 10.36 21.01 10.45L21.01 10.45L21.01 10.45Q21.28 10.26 21.57 10.06L21.57 10.06L21.57 10.06Q21.87 9.86 22.18 9.69L22.18 9.69L22.18 9.69Q22.48 9.53 22.79 9.42L22.79 9.42L22.79 9.42Q23.11 9.32 23.41 9.32L23.41 9.32L23.41 9.32Q23.69 9.32 23.93 9.43L23.93 9.43L23.93 9.43Q24.17 9.55 24.29 9.82L24.29 9.82L24.29 9.82Q24.40 10.06 24.44 10.34L24.44 10.34L24.44 10.34Q24.49 10.63 24.50 10.97L24.50 10.97L24.50 10.97Q24.85 10.60 25.28 10.28L25.28 10.28L25.28 10.28Q25.72 9.96 26.19 9.73L26.19 9.73L26.19 9.73Q26.66 9.51 27.14 9.40L27.14 9.40L27.14 9.40Q27.62 9.29 28.04 9.34L28.04 9.34L28.04 9.34Q28.35 9.39 28.68 9.52L28.68 9.52L28.68 9.52Q29.01 9.65 29.29 9.91L29.29 9.91L29.29 9.91Q29.57 10.18 29.74 10.61L29.74 10.61L29.74 10.61Q29.91 11.05 29.89 11.70L29.89 11.70L29.89 11.70Q29.87 12.46 29.83 13.10L29.83 13.10L29.83 13.10Q29.78 13.74 29.78 14.23L29.78 14.23L29.78 14.23Q29.78 14.53 29.83 14.79L29.83 14.79L29.83 14.79Q29.87 15.05 29.99 15.25L29.99 15.25L29.99 15.25Q30.11 15.44 30.32 15.56L30.32 15.56L30.32 15.56Q30.52 15.67 30.83 15.67L30.83 15.67L30.83 15.67Q31.10 15.67 31.41 15.57L31.41 15.57L31.41 15.57Q31.71 15.46 32.02 15.24L32.02 15.24L32.02 15.24Q31.52 15.69 31.11 15.99L31.11 15.99L31.11 15.99Q30.69 16.29 30.34 16.47L30.34 16.47L30.34 16.47Q29.98 16.66 29.67 16.74L29.67 16.74L29.67 16.74Q29.37 16.82 29.08 16.81L29.08 16.81L29.08 16.81Q28.79 16.80 28.59 16.70L28.59 16.70L28.59 16.70Q28.38 16.59 28.26 16.37L28.26 16.37L28.26 16.37Q28.14 16.15 28.09 15.79L28.09 15.79L28.09 15.79Q28.04 15.44 28.05 14.93L28.05 14.93L28.05 14.93Q28.08 14.48 28.11 13.94L28.11 13.94L28.11 13.94Q28.14 13.39 28.14 12.86L28.14 12.86L28.14 12.86Q28.14 12.25 28.06 11.81L28.06 11.81L28.06 11.81Q27.98 11.38 27.76 11.09L27.76 11.09L27.76 11.09Q27.55 10.81 27.17 10.67L27.17 10.67L27.17 10.67Q26.79 10.53 26.20 10.53L26.20 10.53L26.20 10.53Q25.76 10.53 25.46 10.70L25.46 10.70L25.46 10.70Q25.16 10.87 24.96 11.16L24.96 11.16L24.96 11.16Q24.77 11.44 24.65 11.82L24.65 11.82L24.65 11.82Q24.54 12.20 24.48 12.63L24.48 12.63L24.48 12.63Q24.42 13.06 24.40 13.50L24.40 13.50L24.40 13.50Q24.38 13.95 24.37 14.37L24.37 14.37L24.37 14.37Q24.36 14.79 24.34 15.15L24.34 15.15L24.34 15.15Q24.32 15.52 24.26 15.78ZM42.44 15.59L42.44 15.59L42.44 15.59Q41.51 16.22 40.87 16.50L40.87 16.50L40.87 16.50Q40.22 16.77 39.76 16.77L39.76 16.77L39.76 16.77Q39.58 16.77 39.39 16.71L39.39 16.71L39.39 16.71Q39.19 16.65 39.01 16.51L39.01 16.51L39.01 16.51Q38.83 16.37 38.69 16.14L38.69 16.14L38.69 16.14Q38.54 15.90 38.46 15.54L38.46 15.54L38.46 15.54Q38.12 15.78 37.72 16.02L37.72 16.02L37.72 16.02Q37.31 16.26 36.88 16.45L36.88 16.45L36.88 16.45Q36.45 16.65 36.02 16.76L36.02 16.76L36.02 16.76Q35.58 16.88 35.18 16.88L35.18 16.88L35.18 16.88Q34.51 16.88 33.98 16.61L33.98 16.61L33.98 16.61Q33.45 16.34 33.08 15.89L33.08 15.89L33.08 15.89Q32.70 15.45 32.50 14.88L32.50 14.88L32.50 14.88Q32.30 14.31 32.30 13.71L32.30 13.71L32.30 13.71Q32.30 13.04 32.51 12.51L32.51 12.51L32.51 12.51Q32.72 11.98 33.08 11.57L33.08 11.57L33.08 11.57Q33.43 11.16 33.91 10.84L33.91 10.84L33.91 10.84Q34.38 10.52 34.91 10.28L34.91 10.28L34.91 10.28Q35.44 10.04 36.00 9.86L36.00 9.86L36.00 9.86Q36.57 9.68 37.09 9.53L37.09 9.53L37.09 9.53Q37.14 9.52 37.21 9.52L37.21 9.52L37.21 9.52Q37.26 9.51 37.34 9.51L37.34 9.51L37.34 9.51Q37.42 9.50 37.52 9.50L37.52 9.50L37.52 9.50Q37.71 9.50 37.96 9.53L37.96 9.53L37.96 9.53Q38.20 9.55 38.47 9.61L38.47 9.61L38.62 5.30L38.62 5.30Q38.60 4.92 38.48 4.66L38.48 4.66L38.48 4.66Q38.42 4.55 38.34 4.45L38.34 4.45L38.34 4.45Q38.26 4.35 38.14 4.29L38.14 4.29L38.14 4.29Q38.02 4.24 37.85 4.23L37.85 4.23L37.85 4.23Q37.69 4.22 37.47 4.29L37.47 4.29L37.47 4.29Q37.73 4.17 38.04 4.02L38.04 4.02L38.04 4.02Q38.34 3.86 38.63 3.73L38.63 3.73L38.63 3.73Q38.93 3.60 39.21 3.50L39.21 3.50L39.21 3.50Q39.50 3.41 39.74 3.41L39.74 3.41L39.74 3.41Q40.00 3.41 40.17 3.55L40.17 3.55L40.17 3.55Q40.35 3.68 40.37 3.97L40.37 3.97L40.37 3.97Q40.39 4.16 40.39 4.50L40.39 4.50L40.39 4.50Q40.39 4.83 40.39 5.30L40.39 5.30L40.39 5.30Q40.39 5.85 40.38 6.53L40.38 6.53L40.38 6.53Q40.37 7.21 40.36 7.95L40.36 7.95L40.36 7.95Q40.35 8.69 40.33 9.45L40.33 9.45L40.33 9.45Q40.30 10.22 40.29 10.95L40.29 10.95L40.29 10.95Q40.28 11.68 40.27 12.34L40.27 12.34L40.27 12.34Q40.26 13.00 40.26 13.52L40.26 13.52L40.26 13.52Q40.26 13.93 40.31 14.33L40.31 14.33L40.31 14.33Q40.36 14.72 40.51 15.04L40.51 15.04L40.51 15.04Q40.67 15.35 40.94 15.55L40.94 15.55L40.94 15.55Q41.22 15.74 41.68 15.74L41.68 15.74L41.68 15.74Q41.85 15.74 42.04 15.71L42.04 15.71L42.04 15.71Q42.23 15.67 42.44 15.59ZM38.43 11.11L38.43 11.11L38.43 11.11Q38.19 10.90 37.92 10.77L37.92 10.77L37.92 10.77Q37.65 10.63 37.35 10.54L37.35 10.54L37.35 10.54Q37.06 10.46 36.77 10.42L36.77 10.42L36.77 10.42Q36.48 10.38 36.21 10.38L36.21 10.38L36.21 10.38Q35.62 10.38 35.19 10.56L35.19 10.56L35.19 10.56Q34.77 10.74 34.51 11.07L34.51 11.07L34.51 11.07Q34.24 11.40 34.12 11.85L34.12 11.85L34.12 11.85Q34.00 12.31 34.00 12.87L34.00 12.87L34.00 12.87Q34.00 13.47 34.18 14.01L34.18 14.01L34.18 14.01Q34.37 14.55 34.71 14.95L34.71 14.95L34.71 14.95Q35.05 15.36 35.54 15.60L35.54 15.60L35.54 15.60Q36.03 15.83 36.63 15.83L36.63 15.83L36.63 15.83Q37.05 15.83 37.35 15.73L37.35 15.73L37.35 15.73Q37.65 15.62 37.85 15.43L37.85 15.43L37.85 15.43Q38.06 15.24 38.18 14.98L38.18 14.98L38.18 14.98Q38.30 14.71 38.38 14.39L38.38 14.39L38.38 14.39Q38.38 14.12 38.38 13.76L38.38 13.76L38.38 13.76Q38.38 13.41 38.39 12.98L38.39 12.98L38.39 12.98Q38.40 12.56 38.41 12.09L38.41 12.09L38.41 12.09Q38.42 11.61 38.43 11.11ZM45.74 3.77L45.74 3.77L45.74 3.77Q45.74 3.97 45.75 4.15L45.75 4.15L45.75 4.15Q45.75 4.33 45.75 4.50L45.75 4.50L45.75 4.50Q45.75 4.91 45.68 5.20L45.68 5.20L45.68 5.20Q45.62 5.48 45.36 5.65L45.36 5.65L45.36 5.65Q45.21 5.76 44.99 5.91L44.99 5.91L44.99 5.91Q44.61 6.15 43.78 6.66L43.78 6.66L43.78 6.66Q43.86 6.44 43.90 6.13L43.90 6.13L43.90 6.13Q43.93 5.82 43.95 5.54L43.95 5.54L43.95 5.54Q43.96 5.21 43.95 4.85L43.95 4.85L43.95 4.85Q44.38 4.63 44.71 4.43L44.71 4.43L44.71 4.43Q45.04 4.24 45.27 4.09L45.27 4.09L45.27 4.09Q45.54 3.92 45.74 3.77ZM48.15 15.42L48.15 15.42L48.15 15.42Q47.37 15.93 46.82 16.23L46.82 16.23L46.82 16.23Q46.28 16.52 45.89 16.67L45.89 16.67L45.89 16.67Q45.50 16.81 45.23 16.83L45.23 16.83L45.23 16.83Q44.97 16.85 44.75 16.81L44.75 16.81L44.75 16.81Q44.55 16.78 44.36 16.71L44.36 16.71L44.36 16.71Q44.17 16.64 44.01 16.46L44.01 16.46L44.01 16.46Q43.86 16.28 43.76 15.93L43.76 15.93L43.76 15.93Q43.67 15.59 43.67 15.00L43.67 15.00L43.67 15.00Q43.67 14.51 43.70 14.03L43.70 14.03L43.70 14.03Q43.72 13.55 43.75 13.07L43.75 13.07L43.75 13.07Q43.78 12.60 43.80 12.13L43.80 12.13L43.80 12.13Q43.82 11.66 43.80 11.20L43.80 11.20L43.80 11.20Q43.79 10.75 43.64 10.54L43.64 10.54L43.64 10.54Q43.49 10.33 43.19 10.33L43.19 10.33L43.19 10.33Q43.07 10.33 42.94 10.36L42.94 10.36L42.94 10.36Q42.80 10.38 42.64 10.44L42.64 10.44L42.64 10.44Q42.89 10.27 43.15 10.09L43.15 10.09L43.15 10.09Q43.41 9.92 43.67 9.78L43.67 9.78L43.67 9.78Q43.94 9.65 44.21 9.56L44.21 9.56L44.21 9.56Q44.48 9.47 44.75 9.47L44.75 9.47L44.75 9.47Q45.04 9.47 45.25 9.60L45.25 9.60L45.25 9.60Q45.47 9.73 45.53 10.04L45.53 10.04L45.53 10.04Q45.55 10.15 45.56 10.38L45.56 10.38L45.56 10.38Q45.57 10.60 45.57 10.90L45.57 10.90L45.57 10.90Q45.57 11.35 45.55 11.89L45.55 11.89L45.55 11.89Q45.53 12.43 45.51 12.95L45.51 12.95L45.51 12.95Q45.49 13.47 45.47 13.91L45.47 13.91L45.47 13.91Q45.45 14.36 45.45 14.59L45.45 14.59L45.45 14.59Q45.44 14.82 45.53 15.05L45.53 15.05L45.53 15.05Q45.62 15.27 45.79 15.45L45.79 15.45L45.79 15.45Q45.96 15.63 46.22 15.75L46.22 15.75L46.22 15.75Q46.48 15.86 46.81 15.86L46.81 15.86L46.81 15.86Q47.09 15.86 47.43 15.76L47.43 15.76L47.43 15.76Q47.76 15.65 48.15 15.42ZM54.67 14.98L54.67 14.98L54.67 14.98Q54.14 15.41 53.62 15.75L53.62 15.75L53.62 15.75Q53.10 16.09 52.61 16.32L52.61 16.32L52.61 16.32Q52.12 16.56 51.68 16.67L51.68 16.67L51.68 16.67Q51.23 16.78 50.84 16.75L50.84 16.75L50.84 16.75Q50.44 16.73 50.11 16.56L50.11 16.56L50.11 16.56Q49.78 16.40 49.54 16.07L49.54 16.07L49.54 16.07Q49.30 15.74 49.17 15.23L49.17 15.23L49.17 15.23Q49.04 14.72 49.06 13.99L49.06 13.99L49.06 13.99Q49.07 13.60 49.09 13.07L49.09 13.07L49.09 13.07Q49.10 12.61 49.12 11.94L49.12 11.94L49.12 11.94Q49.13 11.26 49.14 10.36L49.14 10.36L49.14 10.36Q49 10.37 48.79 10.39L48.79 10.39L48.79 10.39Q48.58 10.41 48.34 10.46L48.34 10.46L48.34 10.46Q48.10 10.51 47.84 10.60L47.84 10.60L47.84 10.60Q47.58 10.68 47.33 10.81L47.33 10.81L47.33 10.81Q47.53 10.68 47.74 10.55L47.74 10.55L47.74 10.55Q47.95 10.41 48.12 10.29L48.12 10.29L48.12 10.29Q48.32 10.17 48.50 10.04L48.50 10.04L48.50 10.04Q48.69 9.94 48.83 9.69L48.83 9.69L48.83 9.69Q48.95 9.47 49.05 9.06L49.05 9.06L49.05 9.06Q49.16 8.66 49.16 7.98L49.16 7.98L49.16 7.98Q49.64 7.74 49.96 7.54L49.96 7.54L49.96 7.54Q50.29 7.34 50.50 7.21L50.50 7.21L50.50 7.21Q50.74 7.04 50.88 6.92L50.88 6.92L50.85 9.22L50.85 9.22Q51.03 9.23 51.20 9.23L51.20 9.23L51.20 9.23Q51.37 9.24 51.50 9.24L51.50 9.24L51.79 9.24L51.79 9.24Q52.38 9.25 52.90 9.22L52.90 9.22L52.90 9.22Q53.13 9.21 53.36 9.19L53.36 9.19L53.36 9.19Q53.60 9.17 53.82 9.14L53.82 9.14L53.82 9.14Q54.04 9.11 54.23 9.06L54.23 9.06L54.23 9.06Q54.41 9.02 54.54 8.96L54.54 8.96L54.54 8.96Q54.17 9.32 53.73 9.58L53.73 9.58L53.73 9.58Q53.29 9.83 52.81 9.99L52.81 9.99L52.81 9.99Q52.34 10.15 51.83 10.23L51.83 10.23L51.83 10.23Q51.33 10.32 50.84 10.34L50.84 10.34L50.84 10.34Q50.83 11.32 50.82 12.26L50.82 12.26L50.82 12.26Q50.81 13.21 50.81 14.12L50.81 14.12L50.81 14.12Q50.82 14.42 50.96 14.69L50.96 14.69L50.96 14.69Q51.11 14.96 51.36 15.16L51.36 15.16L51.36 15.16Q51.62 15.35 51.97 15.47L51.97 15.47L51.97 15.47Q52.32 15.59 52.74 15.59L52.74 15.59L52.74 15.59Q53.17 15.59 53.67 15.45L53.67 15.45L53.67 15.45Q54.16 15.31 54.67 14.98Z"></path></g><defs data-v-fde0c5aa=""><linearGradient data-v-fde0c5aa="" gradientTransform="rotate(25)" id="4b2cd35e-0b2b-4eab-8e03-3ef1ac8d4cd6" x1="0%" y1="0%" x2="100%" y2="0%"><stop data-v-fde0c5aa="" offset="0%" stop-color="#085B20" stop-opacity="1"></stop><stop data-v-fde0c5aa="" offset="100%" stop-color="#41E296" stop-opacity="1"></stop></linearGradient></defs><g data-v-fde0c5aa="" id="c96f6ba8-8dd7-4dac-a04f-f5294242163f" stroke="none" fill="url(#4b2cd35e-0b2b-4eab-8e03-3ef1ac8d4cd6)" transform="matrix(0.7304849735760167,0,0,0.7304849735760167,37.80854507927195,113.47574992790965)"><path d="M40.3 79.8V37.1c-.2-.2-.3-.4-.5-.6-4.4-4.6-23.6-1.6-31.6.1V80c2.2-.5 7.6-1.5 13.4-2.1 9.3-.9 15.6-.3 18.7 1.9zM60.7 77.9c5.7.6 11.1 1.6 13.4 2.1V52.2L60 51c-.2 0-.5-.1-.6-.3L46.7 34.6c-1.8.4-3.3 1-4.1 1.9-.2.2-.3.4-.5.6v42.7c2.1-1.5 5.8-2.3 11-2.3 2.3 0 4.8.1 7.6.4zM47.5 14.1l19 24L97 40.7l-19-24z"></path><path d="M65.3 39.6L53.2 24.2l-5 9.4 12.4 15.7L80.5 51l5-9.4L66 39.9c-.3 0-.5-.1-.7-.3z"></path><path d="M75.9 81.2c0 .3-.1.5-.3.7-.2.2-.5.2-.8.2-7.4-1.7-27.8-5-32.3-.3-.3.3-.6.6-.9.8h-.1H41.2 41h-.1-.1c-.3-.2-.6-.4-.9-.8C35.3 77 15 80.3 7.5 82c-.3.1-.5 0-.8-.2-.2-.2-.3-.4-.3-.7V39.4H3v46.5h76.4V52.6l-3.5-.3v28.9z"></path></g><!----></svg>